<mxfile host="app.diagrams.net" modified="2024-04-24T07:40:35.864Z" agent="Mozilla/5.0 (Windows NT 10.0; Win64; x64) AppleWebKit/537.36 (KHTML, like Gecko) Chrome/124.0.0.0 Safari/537.36" etag="2f02uSnOqHbiUO3JGNoH" version="24.2.8" type="device">
  <diagram name="Page-1" id="Ta4fngU8CTSRcV5Dksh-">
    <mxGraphModel dx="2199" dy="2141" grid="1" gridSize="10" guides="1" tooltips="1" connect="1" arrows="1" fold="1" page="1" pageScale="1" pageWidth="850" pageHeight="1100" math="0" shadow="0">
      <root>
        <mxCell id="0" />
        <mxCell id="1" parent="0" />
        <mxCell id="ySG-ZQxcT2D6V-AMraM6-2" value="member" style="rounded=0;whiteSpace=wrap;html=1;" parent="1" vertex="1">
          <mxGeometry x="330" y="340" width="120" height="60" as="geometry" />
        </mxCell>
        <mxCell id="ySG-ZQxcT2D6V-AMraM6-3" value="id_member" style="ellipse;whiteSpace=wrap;html=1;" parent="1" vertex="1">
          <mxGeometry x="140" y="470" width="120" height="80" as="geometry" />
        </mxCell>
        <mxCell id="ySG-ZQxcT2D6V-AMraM6-4" value="nm_member" style="ellipse;whiteSpace=wrap;html=1;" parent="1" vertex="1">
          <mxGeometry x="140" y="560" width="120" height="80" as="geometry" />
        </mxCell>
        <mxCell id="ySG-ZQxcT2D6V-AMraM6-5" value="alamat_member" style="ellipse;whiteSpace=wrap;html=1;" parent="1" vertex="1">
          <mxGeometry x="270" y="560" width="100" height="90" as="geometry" />
        </mxCell>
        <mxCell id="ySG-ZQxcT2D6V-AMraM6-8" value="" style="endArrow=none;html=1;rounded=0;" parent="1" source="ySG-ZQxcT2D6V-AMraM6-3" target="ySG-ZQxcT2D6V-AMraM6-2" edge="1">
          <mxGeometry relative="1" as="geometry">
            <mxPoint x="280" y="110" as="sourcePoint" />
            <mxPoint x="440" y="110" as="targetPoint" />
            <Array as="points">
              <mxPoint x="240" y="460" />
              <mxPoint x="270" y="420" />
            </Array>
          </mxGeometry>
        </mxCell>
        <mxCell id="ySG-ZQxcT2D6V-AMraM6-12" value="" style="endArrow=none;html=1;rounded=0;" parent="1" source="ySG-ZQxcT2D6V-AMraM6-5" target="ySG-ZQxcT2D6V-AMraM6-2" edge="1">
          <mxGeometry relative="1" as="geometry">
            <mxPoint x="360" y="300" as="sourcePoint" />
            <mxPoint x="520" y="300" as="targetPoint" />
            <Array as="points">
              <mxPoint x="320" y="520" />
              <mxPoint x="320" y="450" />
            </Array>
          </mxGeometry>
        </mxCell>
        <mxCell id="ySG-ZQxcT2D6V-AMraM6-14" value="" style="endArrow=none;html=1;rounded=0;" parent="1" source="ySG-ZQxcT2D6V-AMraM6-4" target="ySG-ZQxcT2D6V-AMraM6-2" edge="1">
          <mxGeometry relative="1" as="geometry">
            <mxPoint x="260" y="440" as="sourcePoint" />
            <mxPoint x="420" y="440" as="targetPoint" />
            <Array as="points">
              <mxPoint x="250" y="550" />
              <mxPoint x="280" y="520" />
              <mxPoint x="290" y="450" />
            </Array>
          </mxGeometry>
        </mxCell>
        <mxCell id="ySG-ZQxcT2D6V-AMraM6-29" value="Penjualan" style="shape=ext;double=1;rounded=0;whiteSpace=wrap;html=1;" parent="1" vertex="1">
          <mxGeometry x="790" y="260" width="120" height="80" as="geometry" />
        </mxCell>
        <mxCell id="ySG-ZQxcT2D6V-AMraM6-31" value="&lt;div&gt;jumlah&lt;/div&gt;" style="ellipse;whiteSpace=wrap;html=1;" parent="1" vertex="1">
          <mxGeometry x="720" y="470" width="120" height="80" as="geometry" />
        </mxCell>
        <mxCell id="ySG-ZQxcT2D6V-AMraM6-32" value="id_penjualan" style="ellipse;whiteSpace=wrap;html=1;" parent="1" vertex="1">
          <mxGeometry x="1120" y="430" width="120" height="80" as="geometry" />
        </mxCell>
        <mxCell id="ySG-ZQxcT2D6V-AMraM6-33" value="&lt;u&gt;&lt;b&gt;id_barang&lt;/b&gt;&lt;/u&gt;" style="ellipse;whiteSpace=wrap;html=1;" parent="1" vertex="1">
          <mxGeometry x="990" y="480" width="120" height="80" as="geometry" />
        </mxCell>
        <mxCell id="ySG-ZQxcT2D6V-AMraM6-34" value="id_member" style="ellipse;whiteSpace=wrap;html=1;" parent="1" vertex="1">
          <mxGeometry x="850" y="490" width="120" height="80" as="geometry" />
        </mxCell>
        <mxCell id="ySG-ZQxcT2D6V-AMraM6-35" value="" style="endArrow=none;html=1;rounded=0;" parent="1" source="ySG-ZQxcT2D6V-AMraM6-29" target="ySG-ZQxcT2D6V-AMraM6-33" edge="1">
          <mxGeometry relative="1" as="geometry">
            <mxPoint x="420" y="550" as="sourcePoint" />
            <mxPoint x="580" y="550" as="targetPoint" />
            <Array as="points">
              <mxPoint x="920" y="440" />
            </Array>
          </mxGeometry>
        </mxCell>
        <mxCell id="ySG-ZQxcT2D6V-AMraM6-36" value="1" style="resizable=0;html=1;whiteSpace=wrap;align=right;verticalAlign=bottom;" parent="ySG-ZQxcT2D6V-AMraM6-35" connectable="0" vertex="1">
          <mxGeometry x="1" relative="1" as="geometry" />
        </mxCell>
        <mxCell id="ySG-ZQxcT2D6V-AMraM6-39" value="" style="endArrow=none;html=1;rounded=0;" parent="1" source="ySG-ZQxcT2D6V-AMraM6-29" target="ySG-ZQxcT2D6V-AMraM6-31" edge="1">
          <mxGeometry relative="1" as="geometry">
            <mxPoint x="420" y="550" as="sourcePoint" />
            <mxPoint x="580" y="550" as="targetPoint" />
            <Array as="points">
              <mxPoint x="800" y="420" />
            </Array>
          </mxGeometry>
        </mxCell>
        <mxCell id="ySG-ZQxcT2D6V-AMraM6-40" value="1" style="resizable=0;html=1;whiteSpace=wrap;align=right;verticalAlign=bottom;" parent="ySG-ZQxcT2D6V-AMraM6-39" connectable="0" vertex="1">
          <mxGeometry x="1" relative="1" as="geometry" />
        </mxCell>
        <mxCell id="ySG-ZQxcT2D6V-AMraM6-41" value="" style="endArrow=none;html=1;rounded=0;" parent="1" source="ySG-ZQxcT2D6V-AMraM6-29" target="ySG-ZQxcT2D6V-AMraM6-34" edge="1">
          <mxGeometry relative="1" as="geometry">
            <mxPoint x="420" y="550" as="sourcePoint" />
            <mxPoint x="580" y="550" as="targetPoint" />
          </mxGeometry>
        </mxCell>
        <mxCell id="ySG-ZQxcT2D6V-AMraM6-42" value="1" style="resizable=0;html=1;whiteSpace=wrap;align=right;verticalAlign=bottom;" parent="ySG-ZQxcT2D6V-AMraM6-41" connectable="0" vertex="1">
          <mxGeometry x="1" relative="1" as="geometry" />
        </mxCell>
        <mxCell id="ySG-ZQxcT2D6V-AMraM6-44" value="" style="endArrow=none;html=1;rounded=0;" parent="1" source="ySG-ZQxcT2D6V-AMraM6-32" target="ySG-ZQxcT2D6V-AMraM6-29" edge="1">
          <mxGeometry relative="1" as="geometry">
            <mxPoint x="420" y="550" as="sourcePoint" />
            <mxPoint x="580" y="550" as="targetPoint" />
            <Array as="points">
              <mxPoint x="980" y="420" />
            </Array>
          </mxGeometry>
        </mxCell>
        <mxCell id="ySG-ZQxcT2D6V-AMraM6-47" value="&lt;font style=&quot;font-size: 16px;&quot;&gt;telepon&lt;/font&gt;" style="ellipse;whiteSpace=wrap;html=1;" parent="1" vertex="1">
          <mxGeometry x="500" y="560" width="120" height="100" as="geometry" />
        </mxCell>
        <mxCell id="ySG-ZQxcT2D6V-AMraM6-48" value="" style="endArrow=none;html=1;rounded=0;exitX=0.5;exitY=1;exitDx=0;exitDy=0;" parent="1" source="ySG-ZQxcT2D6V-AMraM6-2" target="ySG-ZQxcT2D6V-AMraM6-47" edge="1">
          <mxGeometry relative="1" as="geometry">
            <mxPoint x="405" y="302" as="sourcePoint" />
            <mxPoint x="425" y="240" as="targetPoint" />
          </mxGeometry>
        </mxCell>
        <mxCell id="ySG-ZQxcT2D6V-AMraM6-50" value="kategori" style="rounded=0;whiteSpace=wrap;html=1;" parent="1" vertex="1">
          <mxGeometry x="790" y="80" width="120" height="60" as="geometry" />
        </mxCell>
        <mxCell id="ySG-ZQxcT2D6V-AMraM6-51" value="nama_kategori" style="ellipse;whiteSpace=wrap;html=1;" parent="1" vertex="1">
          <mxGeometry x="940" y="-130" width="120" height="100" as="geometry" />
        </mxCell>
        <mxCell id="ySG-ZQxcT2D6V-AMraM6-52" value="&lt;u&gt;&lt;b&gt;&lt;font style=&quot;font-size: 15px;&quot;&gt;id_kategori&lt;/font&gt;&lt;/b&gt;&lt;/u&gt;" style="ellipse;whiteSpace=wrap;html=1;" parent="1" vertex="1">
          <mxGeometry x="1000" y="90" width="120" height="100" as="geometry" />
        </mxCell>
        <mxCell id="ySG-ZQxcT2D6V-AMraM6-54" value="tgl_input" style="ellipse;whiteSpace=wrap;html=1;" parent="1" vertex="1">
          <mxGeometry x="1060" y="-20" width="120" height="100" as="geometry" />
        </mxCell>
        <mxCell id="ySG-ZQxcT2D6V-AMraM6-55" value="" style="endArrow=none;html=1;rounded=0;" parent="1" source="ySG-ZQxcT2D6V-AMraM6-50" target="ySG-ZQxcT2D6V-AMraM6-52" edge="1">
          <mxGeometry relative="1" as="geometry">
            <mxPoint x="375" y="340" as="sourcePoint" />
            <mxPoint x="375" y="410" as="targetPoint" />
          </mxGeometry>
        </mxCell>
        <mxCell id="ySG-ZQxcT2D6V-AMraM6-57" value="" style="endArrow=none;html=1;rounded=0;" parent="1" source="ySG-ZQxcT2D6V-AMraM6-50" target="ySG-ZQxcT2D6V-AMraM6-51" edge="1">
          <mxGeometry relative="1" as="geometry">
            <mxPoint x="650" y="177" as="sourcePoint" />
            <mxPoint x="599" y="183" as="targetPoint" />
            <Array as="points">
              <mxPoint x="1000" y="50" />
            </Array>
          </mxGeometry>
        </mxCell>
        <mxCell id="ySG-ZQxcT2D6V-AMraM6-61" value="" style="endArrow=none;html=1;rounded=0;" parent="1" source="ySG-ZQxcT2D6V-AMraM6-50" target="ySG-ZQxcT2D6V-AMraM6-54" edge="1">
          <mxGeometry relative="1" as="geometry">
            <mxPoint x="670" y="197" as="sourcePoint" />
            <mxPoint x="619" y="203" as="targetPoint" />
          </mxGeometry>
        </mxCell>
        <mxCell id="ySG-ZQxcT2D6V-AMraM6-65" value="barang" style="rounded=0;whiteSpace=wrap;html=1;" parent="1" vertex="1">
          <mxGeometry x="530" y="-90" width="120" height="60" as="geometry" />
        </mxCell>
        <mxCell id="ySG-ZQxcT2D6V-AMraM6-66" value="&lt;font style=&quot;font-size: 24px;&quot;&gt;&lt;u&gt;&lt;b&gt;id&lt;/b&gt;&lt;/u&gt;&lt;/font&gt;" style="ellipse;whiteSpace=wrap;html=1;" parent="1" vertex="1">
          <mxGeometry x="275" y="10" width="150" height="100" as="geometry" />
        </mxCell>
        <mxCell id="ySG-ZQxcT2D6V-AMraM6-67" value="nama_barang" style="ellipse;whiteSpace=wrap;html=1;" parent="1" vertex="1">
          <mxGeometry x="275" y="-200" width="120" height="100" as="geometry" />
        </mxCell>
        <mxCell id="ySG-ZQxcT2D6V-AMraM6-68" value="merk" style="ellipse;whiteSpace=wrap;html=1;" parent="1" vertex="1">
          <mxGeometry x="475" y="-330" width="120" height="100" as="geometry" />
        </mxCell>
        <mxCell id="ySG-ZQxcT2D6V-AMraM6-69" value="id_barang" style="ellipse;whiteSpace=wrap;html=1;" parent="1" vertex="1">
          <mxGeometry x="230" y="-100" width="120" height="100" as="geometry" />
        </mxCell>
        <mxCell id="ySG-ZQxcT2D6V-AMraM6-71" value="" style="endArrow=none;html=1;rounded=0;exitX=0.25;exitY=1;exitDx=0;exitDy=0;" parent="1" source="ySG-ZQxcT2D6V-AMraM6-65" target="ySG-ZQxcT2D6V-AMraM6-66" edge="1">
          <mxGeometry relative="1" as="geometry">
            <mxPoint x="703" y="140" as="sourcePoint" />
            <mxPoint x="691" y="89" as="targetPoint" />
            <Array as="points">
              <mxPoint x="520" y="40" />
            </Array>
          </mxGeometry>
        </mxCell>
        <mxCell id="ySG-ZQxcT2D6V-AMraM6-74" value="" style="endArrow=none;html=1;rounded=0;" parent="1" source="ySG-ZQxcT2D6V-AMraM6-65" target="ySG-ZQxcT2D6V-AMraM6-67" edge="1">
          <mxGeometry relative="1" as="geometry">
            <mxPoint x="620" y="380" as="sourcePoint" />
            <mxPoint x="730" y="314" as="targetPoint" />
          </mxGeometry>
        </mxCell>
        <mxCell id="ySG-ZQxcT2D6V-AMraM6-76" value="" style="endArrow=none;html=1;rounded=0;" parent="1" source="ySG-ZQxcT2D6V-AMraM6-65" target="ySG-ZQxcT2D6V-AMraM6-69" edge="1">
          <mxGeometry relative="1" as="geometry">
            <mxPoint x="630" y="390" as="sourcePoint" />
            <mxPoint x="740" y="324" as="targetPoint" />
          </mxGeometry>
        </mxCell>
        <mxCell id="ySG-ZQxcT2D6V-AMraM6-78" value="" style="endArrow=none;html=1;rounded=0;" parent="1" source="ySG-ZQxcT2D6V-AMraM6-65" target="ySG-ZQxcT2D6V-AMraM6-68" edge="1">
          <mxGeometry relative="1" as="geometry">
            <mxPoint x="640" y="400" as="sourcePoint" />
            <mxPoint x="750" y="334" as="targetPoint" />
          </mxGeometry>
        </mxCell>
        <mxCell id="ySG-ZQxcT2D6V-AMraM6-80" value="melakukan" style="rhombus;whiteSpace=wrap;html=1;" parent="1" vertex="1">
          <mxGeometry x="550" y="330" width="80" height="80" as="geometry" />
        </mxCell>
        <mxCell id="ySG-ZQxcT2D6V-AMraM6-92" value="harga_beli" style="ellipse;whiteSpace=wrap;html=1;" parent="1" vertex="1">
          <mxGeometry x="600" y="-330" width="120" height="100" as="geometry" />
        </mxCell>
        <mxCell id="ySG-ZQxcT2D6V-AMraM6-94" value="harga_jual" style="ellipse;whiteSpace=wrap;html=1;" parent="1" vertex="1">
          <mxGeometry x="730" y="-300" width="120" height="100" as="geometry" />
        </mxCell>
        <mxCell id="ySG-ZQxcT2D6V-AMraM6-95" value="satuan_barang" style="ellipse;whiteSpace=wrap;html=1;" parent="1" vertex="1">
          <mxGeometry x="330" y="-300" width="120" height="100" as="geometry" />
        </mxCell>
        <mxCell id="ySG-ZQxcT2D6V-AMraM6-96" value="stock" style="ellipse;whiteSpace=wrap;html=1;" parent="1" vertex="1">
          <mxGeometry x="830" y="-220" width="120" height="100" as="geometry" />
        </mxCell>
        <mxCell id="ySG-ZQxcT2D6V-AMraM6-97" value="" style="endArrow=none;html=1;rounded=0;entryX=0.635;entryY=1.002;entryDx=0;entryDy=0;entryPerimeter=0;" parent="1" source="ySG-ZQxcT2D6V-AMraM6-65" target="ySG-ZQxcT2D6V-AMraM6-92" edge="1">
          <mxGeometry relative="1" as="geometry">
            <mxPoint x="1010" y="191" as="sourcePoint" />
            <mxPoint x="1226" y="159" as="targetPoint" />
            <Array as="points">
              <mxPoint x="680" y="-130" />
            </Array>
          </mxGeometry>
        </mxCell>
        <mxCell id="ySG-ZQxcT2D6V-AMraM6-99" value="" style="endArrow=none;html=1;rounded=0;exitX=0.951;exitY=-0.006;exitDx=0;exitDy=0;exitPerimeter=0;" parent="1" source="ySG-ZQxcT2D6V-AMraM6-65" target="ySG-ZQxcT2D6V-AMraM6-94" edge="1">
          <mxGeometry relative="1" as="geometry">
            <mxPoint x="1020" y="201" as="sourcePoint" />
            <mxPoint x="1236" y="169" as="targetPoint" />
            <Array as="points">
              <mxPoint x="760" y="-90" />
            </Array>
          </mxGeometry>
        </mxCell>
        <mxCell id="ySG-ZQxcT2D6V-AMraM6-101" value="" style="endArrow=none;html=1;rounded=0;" parent="1" source="ySG-ZQxcT2D6V-AMraM6-65" target="ySG-ZQxcT2D6V-AMraM6-95" edge="1">
          <mxGeometry relative="1" as="geometry">
            <mxPoint x="1030" y="211" as="sourcePoint" />
            <mxPoint x="1246" y="179" as="targetPoint" />
          </mxGeometry>
        </mxCell>
        <mxCell id="ySG-ZQxcT2D6V-AMraM6-103" value="" style="endArrow=none;html=1;rounded=0;exitX=1.023;exitY=0.153;exitDx=0;exitDy=0;exitPerimeter=0;" parent="1" source="ySG-ZQxcT2D6V-AMraM6-65" target="ySG-ZQxcT2D6V-AMraM6-96" edge="1">
          <mxGeometry relative="1" as="geometry">
            <mxPoint x="1040" y="221" as="sourcePoint" />
            <mxPoint x="1256" y="189" as="targetPoint" />
            <Array as="points">
              <mxPoint x="760" y="-80" />
            </Array>
          </mxGeometry>
        </mxCell>
        <mxCell id="ySG-ZQxcT2D6V-AMraM6-105" value="&lt;font style=&quot;font-size: 14px;&quot;&gt;email&lt;/font&gt;" style="ellipse;whiteSpace=wrap;html=1;" parent="1" vertex="1">
          <mxGeometry x="380" y="560" width="120" height="100" as="geometry" />
        </mxCell>
        <mxCell id="ySG-ZQxcT2D6V-AMraM6-106" value="&lt;font style=&quot;font-size: 18px;&quot;&gt;nik&lt;/font&gt;" style="ellipse;whiteSpace=wrap;html=1;" parent="1" vertex="1">
          <mxGeometry x="530" y="450" width="120" height="100" as="geometry" />
        </mxCell>
        <mxCell id="ySG-ZQxcT2D6V-AMraM6-107" value="" style="endArrow=none;html=1;rounded=0;" parent="1" source="ySG-ZQxcT2D6V-AMraM6-2" target="ySG-ZQxcT2D6V-AMraM6-106" edge="1">
          <mxGeometry relative="1" as="geometry">
            <mxPoint x="375" y="340" as="sourcePoint" />
            <mxPoint x="309" y="436" as="targetPoint" />
          </mxGeometry>
        </mxCell>
        <mxCell id="ySG-ZQxcT2D6V-AMraM6-109" value="" style="endArrow=none;html=1;rounded=0;" parent="1" source="ySG-ZQxcT2D6V-AMraM6-2" target="ySG-ZQxcT2D6V-AMraM6-105" edge="1">
          <mxGeometry relative="1" as="geometry">
            <mxPoint x="385" y="350" as="sourcePoint" />
            <mxPoint x="319" y="446" as="targetPoint" />
            <Array as="points">
              <mxPoint x="390" y="520" />
            </Array>
          </mxGeometry>
        </mxCell>
        <mxCell id="ySG-ZQxcT2D6V-AMraM6-111" value="total" style="ellipse;whiteSpace=wrap;html=1;" parent="1" vertex="1">
          <mxGeometry x="1000" y="280" width="120" height="80" as="geometry" />
        </mxCell>
        <mxCell id="ySG-ZQxcT2D6V-AMraM6-112" value="tanggal_input" style="ellipse;whiteSpace=wrap;html=1;" parent="1" vertex="1">
          <mxGeometry x="1130" y="340" width="120" height="80" as="geometry" />
        </mxCell>
        <mxCell id="ySG-ZQxcT2D6V-AMraM6-114" value="" style="endArrow=none;html=1;rounded=0;" parent="1" source="ySG-ZQxcT2D6V-AMraM6-111" target="ySG-ZQxcT2D6V-AMraM6-29" edge="1">
          <mxGeometry relative="1" as="geometry">
            <mxPoint x="980" y="426" as="sourcePoint" />
            <mxPoint x="850" y="415" as="targetPoint" />
          </mxGeometry>
        </mxCell>
        <mxCell id="ySG-ZQxcT2D6V-AMraM6-121" value="login" style="rounded=0;whiteSpace=wrap;html=1;" parent="1" vertex="1">
          <mxGeometry x="180" y="180" width="120" height="60" as="geometry" />
        </mxCell>
        <mxCell id="ySG-ZQxcT2D6V-AMraM6-122" value="&lt;u&gt;&lt;b&gt;id_login&lt;/b&gt;&lt;/u&gt;" style="ellipse;whiteSpace=wrap;html=1;" parent="1" vertex="1">
          <mxGeometry x="-30" y="190" width="120" height="80" as="geometry" />
        </mxCell>
        <mxCell id="ySG-ZQxcT2D6V-AMraM6-125" value="password" style="ellipse;whiteSpace=wrap;html=1;" parent="1" vertex="1">
          <mxGeometry x="60" y="10" width="120" height="80" as="geometry" />
        </mxCell>
        <mxCell id="ySG-ZQxcT2D6V-AMraM6-126" value="user" style="ellipse;whiteSpace=wrap;html=1;" parent="1" vertex="1">
          <mxGeometry x="-10" y="90" width="120" height="80" as="geometry" />
        </mxCell>
        <mxCell id="ySG-ZQxcT2D6V-AMraM6-127" value="" style="endArrow=none;html=1;rounded=0;entryX=0;entryY=1;entryDx=0;entryDy=0;" parent="1" source="ySG-ZQxcT2D6V-AMraM6-122" target="ySG-ZQxcT2D6V-AMraM6-121" edge="1">
          <mxGeometry relative="1" as="geometry">
            <mxPoint x="233" y="402" as="sourcePoint" />
            <mxPoint x="210" y="230" as="targetPoint" />
          </mxGeometry>
        </mxCell>
        <mxCell id="ySG-ZQxcT2D6V-AMraM6-129" value="" style="endArrow=none;html=1;rounded=0;" parent="1" source="ySG-ZQxcT2D6V-AMraM6-126" target="ySG-ZQxcT2D6V-AMraM6-121" edge="1">
          <mxGeometry relative="1" as="geometry">
            <mxPoint x="243" y="412" as="sourcePoint" />
            <mxPoint x="339" y="350" as="targetPoint" />
          </mxGeometry>
        </mxCell>
        <mxCell id="ySG-ZQxcT2D6V-AMraM6-131" value="" style="endArrow=none;html=1;rounded=0;" parent="1" source="ySG-ZQxcT2D6V-AMraM6-125" target="ySG-ZQxcT2D6V-AMraM6-121" edge="1">
          <mxGeometry relative="1" as="geometry">
            <mxPoint x="253" y="422" as="sourcePoint" />
            <mxPoint x="349" y="360" as="targetPoint" />
          </mxGeometry>
        </mxCell>
        <mxCell id="ySG-ZQxcT2D6V-AMraM6-137" value="" style="endArrow=none;html=1;rounded=0;" parent="1" source="ySG-ZQxcT2D6V-AMraM6-112" target="ySG-ZQxcT2D6V-AMraM6-29" edge="1">
          <mxGeometry relative="1" as="geometry">
            <mxPoint x="903" y="495" as="sourcePoint" />
            <mxPoint x="820" y="452" as="targetPoint" />
            <Array as="points">
              <mxPoint x="1010" y="390" />
            </Array>
          </mxGeometry>
        </mxCell>
        <mxCell id="ySG-ZQxcT2D6V-AMraM6-143" value="id_member" style="ellipse;whiteSpace=wrap;html=1;" parent="1" vertex="1">
          <mxGeometry x="-30" y="290" width="120" height="80" as="geometry" />
        </mxCell>
        <mxCell id="ySG-ZQxcT2D6V-AMraM6-144" value="" style="endArrow=none;html=1;rounded=0;" parent="1" source="ySG-ZQxcT2D6V-AMraM6-143" target="ySG-ZQxcT2D6V-AMraM6-121" edge="1">
          <mxGeometry relative="1" as="geometry">
            <mxPoint x="56" y="36" as="sourcePoint" />
            <mxPoint x="206" y="120" as="targetPoint" />
            <Array as="points">
              <mxPoint x="240" y="320" />
            </Array>
          </mxGeometry>
        </mxCell>
        <mxCell id="ySG-ZQxcT2D6V-AMraM6-145" value="" style="resizable=0;html=1;whiteSpace=wrap;align=right;verticalAlign=bottom;" parent="ySG-ZQxcT2D6V-AMraM6-144" connectable="0" vertex="1">
          <mxGeometry x="1" relative="1" as="geometry" />
        </mxCell>
        <mxCell id="ySG-ZQxcT2D6V-AMraM6-146" value="tgl_update" style="ellipse;whiteSpace=wrap;html=1;" parent="1" vertex="1">
          <mxGeometry x="680" y="-40" width="120" height="100" as="geometry" />
        </mxCell>
        <mxCell id="ySG-ZQxcT2D6V-AMraM6-147" value="tgl_input" style="ellipse;whiteSpace=wrap;html=1;" parent="1" vertex="1">
          <mxGeometry x="560" y="90" width="120" height="100" as="geometry" />
        </mxCell>
        <mxCell id="ySG-ZQxcT2D6V-AMraM6-148" value="" style="endArrow=none;html=1;rounded=0;" parent="1" source="ySG-ZQxcT2D6V-AMraM6-65" target="ySG-ZQxcT2D6V-AMraM6-146" edge="1">
          <mxGeometry relative="1" as="geometry">
            <mxPoint x="527" y="30" as="sourcePoint" />
            <mxPoint x="724" y="-190" as="targetPoint" />
          </mxGeometry>
        </mxCell>
        <mxCell id="ySG-ZQxcT2D6V-AMraM6-150" value="" style="endArrow=none;html=1;rounded=0;exitX=0.75;exitY=1;exitDx=0;exitDy=0;" parent="1" source="ySG-ZQxcT2D6V-AMraM6-65" target="ySG-ZQxcT2D6V-AMraM6-147" edge="1">
          <mxGeometry relative="1" as="geometry">
            <mxPoint x="537" y="40" as="sourcePoint" />
            <mxPoint x="734" y="-180" as="targetPoint" />
          </mxGeometry>
        </mxCell>
        <mxCell id="ySG-ZQxcT2D6V-AMraM6-151" value="" style="resizable=0;html=1;whiteSpace=wrap;align=right;verticalAlign=bottom;" parent="ySG-ZQxcT2D6V-AMraM6-150" connectable="0" vertex="1">
          <mxGeometry x="1" relative="1" as="geometry" />
        </mxCell>
        <mxCell id="ySG-ZQxcT2D6V-AMraM6-152" value="id_kategori" style="ellipse;whiteSpace=wrap;html=1;" parent="1" vertex="1">
          <mxGeometry x="395" y="90" width="150" height="100" as="geometry" />
        </mxCell>
        <mxCell id="ySG-ZQxcT2D6V-AMraM6-155" value="" style="endArrow=none;html=1;rounded=0;exitX=0.5;exitY=1;exitDx=0;exitDy=0;" parent="1" source="ySG-ZQxcT2D6V-AMraM6-65" target="ySG-ZQxcT2D6V-AMraM6-152" edge="1">
          <mxGeometry relative="1" as="geometry">
            <mxPoint x="470" y="30" as="sourcePoint" />
            <mxPoint x="351" y="-71" as="targetPoint" />
            <Array as="points">
              <mxPoint x="590" y="40" />
            </Array>
          </mxGeometry>
        </mxCell>
        <mxCell id="ySG-ZQxcT2D6V-AMraM6-158" value="" style="endArrow=classic;html=1;rounded=0;" parent="1" source="ySG-ZQxcT2D6V-AMraM6-2" target="ySG-ZQxcT2D6V-AMraM6-80" edge="1">
          <mxGeometry width="50" height="50" relative="1" as="geometry">
            <mxPoint x="640" y="330" as="sourcePoint" />
            <mxPoint x="690" y="280" as="targetPoint" />
          </mxGeometry>
        </mxCell>
        <mxCell id="ySG-ZQxcT2D6V-AMraM6-159" value="" style="endArrow=classic;html=1;rounded=0;" parent="1" source="ySG-ZQxcT2D6V-AMraM6-80" target="ySG-ZQxcT2D6V-AMraM6-29" edge="1">
          <mxGeometry width="50" height="50" relative="1" as="geometry">
            <mxPoint x="950" y="330" as="sourcePoint" />
            <mxPoint x="1000" y="280" as="targetPoint" />
            <Array as="points">
              <mxPoint x="750" y="370" />
            </Array>
          </mxGeometry>
        </mxCell>
        <mxCell id="Vxk3IypaDAzRvwIZMFb--1" value="&lt;u&gt;&lt;b&gt;id_login&lt;/b&gt;&lt;/u&gt;" style="ellipse;whiteSpace=wrap;html=1;" parent="1" vertex="1">
          <mxGeometry x="130" y="380" width="110" height="80" as="geometry" />
        </mxCell>
        <mxCell id="Vxk3IypaDAzRvwIZMFb--2" value="" style="endArrow=none;html=1;rounded=0;" parent="1" source="Vxk3IypaDAzRvwIZMFb--1" target="ySG-ZQxcT2D6V-AMraM6-2" edge="1">
          <mxGeometry relative="1" as="geometry">
            <mxPoint x="223" y="492" as="sourcePoint" />
            <mxPoint x="353" y="410" as="targetPoint" />
            <Array as="points">
              <mxPoint x="280" y="370" />
            </Array>
          </mxGeometry>
        </mxCell>
        <mxCell id="Vxk3IypaDAzRvwIZMFb--3" value="1" style="text;html=1;align=center;verticalAlign=middle;resizable=0;points=[];autosize=1;strokeColor=none;fillColor=none;" parent="1" vertex="1">
          <mxGeometry x="445" y="348" width="30" height="30" as="geometry" />
        </mxCell>
        <mxCell id="Vxk3IypaDAzRvwIZMFb--4" value="N" style="text;html=1;align=center;verticalAlign=middle;resizable=0;points=[];autosize=1;strokeColor=none;fillColor=none;" parent="1" vertex="1">
          <mxGeometry x="765" y="318" width="30" height="30" as="geometry" />
        </mxCell>
        <mxCell id="Vxk3IypaDAzRvwIZMFb--5" value="" style="endArrow=classic;html=1;rounded=0;entryX=0.821;entryY=0.99;entryDx=0;entryDy=0;entryPerimeter=0;" parent="1" source="Vxk3IypaDAzRvwIZMFb--7" target="ySG-ZQxcT2D6V-AMraM6-65" edge="1">
          <mxGeometry width="50" height="50" relative="1" as="geometry">
            <mxPoint x="640" y="380" as="sourcePoint" />
            <mxPoint x="803" y="350" as="targetPoint" />
            <Array as="points" />
          </mxGeometry>
        </mxCell>
        <mxCell id="Vxk3IypaDAzRvwIZMFb--6" value="" style="endArrow=classic;html=1;rounded=0;" parent="1" source="Vxk3IypaDAzRvwIZMFb--9" target="ySG-ZQxcT2D6V-AMraM6-50" edge="1">
          <mxGeometry width="50" height="50" relative="1" as="geometry">
            <mxPoint x="740" y="230" as="sourcePoint" />
            <mxPoint x="639" y="-21" as="targetPoint" />
            <Array as="points">
              <mxPoint x="850" y="-60" />
            </Array>
          </mxGeometry>
        </mxCell>
        <mxCell id="Vxk3IypaDAzRvwIZMFb--8" value="" style="endArrow=classic;html=1;rounded=0;entryX=1;entryY=1;entryDx=0;entryDy=0;" parent="1" source="ySG-ZQxcT2D6V-AMraM6-29" target="Vxk3IypaDAzRvwIZMFb--7" edge="1">
          <mxGeometry width="50" height="50" relative="1" as="geometry">
            <mxPoint x="810" y="260" as="sourcePoint" />
            <mxPoint x="629" y="-31" as="targetPoint" />
            <Array as="points" />
          </mxGeometry>
        </mxCell>
        <mxCell id="Vxk3IypaDAzRvwIZMFb--7" value="memiliki" style="rhombus;whiteSpace=wrap;html=1;" parent="1" vertex="1">
          <mxGeometry x="710" y="120" width="80" height="80" as="geometry" />
        </mxCell>
        <mxCell id="Vxk3IypaDAzRvwIZMFb--10" value="" style="endArrow=classic;html=1;rounded=0;" parent="1" source="ySG-ZQxcT2D6V-AMraM6-65" target="Vxk3IypaDAzRvwIZMFb--9" edge="1">
          <mxGeometry width="50" height="50" relative="1" as="geometry">
            <mxPoint x="650" y="-60" as="sourcePoint" />
            <mxPoint x="850" y="80" as="targetPoint" />
            <Array as="points" />
          </mxGeometry>
        </mxCell>
        <mxCell id="Vxk3IypaDAzRvwIZMFb--9" value="Memiliki" style="rhombus;whiteSpace=wrap;html=1;" parent="1" vertex="1">
          <mxGeometry x="810" y="-100" width="80" height="80" as="geometry" />
        </mxCell>
        <mxCell id="SkpcoR2XOXINwbyW4rEB-1" value="" style="endArrow=classic;html=1;rounded=0;" edge="1" parent="1" source="ySG-ZQxcT2D6V-AMraM6-121" target="ySG-ZQxcT2D6V-AMraM6-2">
          <mxGeometry width="50" height="50" relative="1" as="geometry">
            <mxPoint x="460" y="380" as="sourcePoint" />
            <mxPoint x="560" y="380" as="targetPoint" />
          </mxGeometry>
        </mxCell>
      </root>
    </mxGraphModel>
  </diagram>
</mxfile>
